<svg width="32" height="32" viewBox="0 0 32 32" fill="none" xmlns="http://www.w3.org/2000/svg">
<path d="M26.7811 22.8061L24.8591 20.9049L23.4702 19.5193C23.3687 19.4058 23.2443 19.315 23.1051 19.2528C22.9659 19.1905 22.8152 19.1583 22.6627 19.1583C22.5102 19.1583 22.3594 19.1905 22.2202 19.2528C22.081 19.315 21.9567 19.4058 21.8552 19.5193L21.5645 19.7771L19.6264 21.7266C19.432 21.9543 19.1625 22.1053 18.8665 22.1526C18.5705 22.1998 18.2673 22.1402 18.0114 21.9844C17.6076 21.7749 17.2039 21.5816 16.8324 21.356C15.1408 20.3305 13.6113 19.06 12.2941 17.5859C11.0669 16.3411 10.052 14.9043 9.29008 13.3324C9.18678 13.1827 9.11441 13.0139 9.07715 12.836C9.0399 12.6581 9.03854 12.4746 9.07311 12.2961C9.10769 12.1176 9.17751 11.9478 9.27854 11.7965C9.37957 11.6453 9.50982 11.5156 9.6616 11.4151C10.3399 10.7545 11.0344 10.0939 11.6804 9.40112C11.7965 9.30129 11.8897 9.17767 11.9536 9.03865C12.0174 8.89962 12.0506 8.74847 12.0506 8.59553C12.0506 8.4426 12.0174 8.29145 11.9536 8.15242C11.8897 8.0134 11.7965 7.88977 11.6804 7.78995L11.4381 7.5322L8.20802 4.30985C8.09418 4.15343 7.94486 4.02612 7.77222 3.93833C7.59959 3.85054 7.40856 3.80469 7.21478 3.80469C7.02101 3.80469 6.82998 3.85054 6.65735 3.93833C6.48471 4.02612 6.33539 4.15343 6.22155 4.30985C5.55938 4.97043 4.89717 5.59874 4.2673 6.27544C3.96314 6.60185 3.7173 6.97787 3.54051 7.38715C3.28207 8.26003 3.28207 9.18888 3.54051 10.0618C3.84989 11.4227 4.33298 12.7385 4.97793 13.9769C8.07098 20.0256 13.2756 24.7363 19.6102 27.2207C20.5274 27.56 21.4917 27.7557 22.4689 27.8007C22.9259 27.8234 23.3825 27.749 23.8085 27.5823C24.2345 27.4156 24.6201 27.1606 24.9399 26.834C25.5213 26.2057 26.135 25.6095 26.7326 24.9973C26.8456 24.8684 26.9587 24.7556 27.0556 24.6267C27.2428 24.4219 27.3467 24.1547 27.3467 23.8775C27.3467 23.6003 27.2428 23.3332 27.0556 23.1284L26.7811 22.8061Z" fill="#0D8E8B"/>
</svg>
