<svg width="38" height="38" viewBox="0 0 38 38" fill="none" xmlns="http://www.w3.org/2000/svg">
<path d="M37 19C37 22.5605 35.944 26.041 33.9657 29.0014C31.9873 31.9617 29.1755 34.2688 25.8858 35.6309C22.5961 36.9929 18.9764 37.3487 15.4844 36.6533C11.9925 35.9579 8.78518 34.2425 6.26827 31.7241C3.75135 29.2057 2.03788 25.9974 1.34456 22.5051C0.65124 19.0127 1.00925 15.3931 2.37327 12.1043C3.7373 8.81538 6.04607 6.00486 9.00757 4.02829C11.9691 2.05172 15.4502 0.997878 19.0108 1C23.7828 1.00285 28.3584 2.90052 31.7317 6.27586C35.1051 9.65121 37 14.228 37 19Z" fill="#078E8C" stroke="white" stroke-miterlimit="10"/>
<path fill-rule="evenodd" clip-rule="evenodd" d="M18.961 10C17.3801 10 15.8639 10.6281 14.7459 11.746C13.628 12.8639 13 14.3801 13 15.9611C13 21.189 18.4935 28 18.961 28C19.4286 28 24.9327 20.6895 24.9327 15.9611C24.9299 14.3791 24.2995 12.863 23.1799 11.7454C22.0603 10.6278 20.543 10 18.961 10ZM18.961 19.9882C18.0947 19.9882 17.2479 19.7312 16.5278 19.2497C15.8076 18.7681 15.2465 18.0838 14.9155 17.2833C14.5844 16.4827 14.4983 15.602 14.6681 14.7525C14.8379 13.903 15.2559 13.1229 15.8692 12.5111C16.4825 11.8993 17.2636 11.4832 18.1135 11.3154C18.9634 11.1477 19.844 11.2359 20.6437 11.5689C21.4435 11.9019 22.1265 12.4646 22.6062 13.186C23.086 13.9073 23.3409 14.7548 23.3388 15.6211C23.3388 16.1955 23.2255 16.7642 23.0054 17.2948C22.7853 17.8253 22.4626 18.3072 22.0559 18.7129C21.6493 19.1185 21.1666 19.44 20.6356 19.6588C20.1045 19.8777 19.5354 19.9896 18.961 19.9882Z" fill="white"/>
</svg>
