<svg width="162" height="43" viewBox="0 0 162 43" fill="none" xmlns="http://www.w3.org/2000/svg">
<path d="M17 15.85V19.75H10.9V36.21H6.33002V19.75H0.200012V15.85H17Z" fill="#0D8E8B"/>
<path d="M16.73 28.57C16.7038 27.3437 16.9178 26.1241 17.36 24.98C17.7287 24.022 18.2865 23.148 19 22.41C19.6689 21.7378 20.4687 21.2102 21.35 20.86C22.2219 20.5126 23.1515 20.3327 24.09 20.33C25.0472 20.2794 26.0042 20.4313 26.8985 20.776C27.7929 21.1206 28.6044 21.6502 29.28 22.33C30.5534 23.6633 31.1867 25.63 31.18 28.23C31.18 28.49 31.18 28.77 31.18 29.07C31.18 29.37 31.18 29.64 31.12 29.88H21.21C21.2499 30.306 21.3836 30.7179 21.6014 31.0862C21.8192 31.4544 22.1158 31.7699 22.47 32.01C23.3598 32.5883 24.4104 32.8684 25.47 32.81C26.2617 32.8076 27.0516 32.734 27.83 32.59C28.4786 32.4777 29.1125 32.2932 29.72 32.04L30.31 35.59C30.0064 35.7313 29.6921 35.8483 29.37 35.94C28.9394 36.0676 28.5021 36.1711 28.06 36.25C27.59 36.34 27.06 36.41 26.53 36.47C25.9854 36.5296 25.4379 36.5597 24.89 36.56C23.6549 36.586 22.4261 36.3755 21.27 35.94C20.3068 35.5745 19.436 35.0008 18.72 34.26C18.0394 33.5339 17.5272 32.6666 17.22 31.72C16.8903 30.7027 16.7249 29.6394 16.73 28.57ZM27 26.9C26.9789 26.5298 26.9117 26.1636 26.8 25.81C26.6997 25.4677 26.5332 25.1483 26.31 24.87C26.0722 24.5942 25.7837 24.3668 25.46 24.2C25.0607 24.011 24.6214 23.9218 24.18 23.94C23.7465 23.9267 23.3156 24.0122 22.92 24.19C22.5816 24.3425 22.2811 24.5679 22.04 24.85C21.7989 25.1466 21.6158 25.4858 21.5 25.85C21.3728 26.2072 21.279 26.5755 21.22 26.95L27 26.9Z" fill="#0D8E8B"/>
<path d="M43.86 24.61C43.47 24.51 43.01 24.41 42.49 24.3C41.9295 24.1939 41.3604 24.1403 40.79 24.14C40.4553 24.1457 40.1213 24.1724 39.79 24.22C39.4997 24.2517 39.2123 24.3052 38.93 24.38V36.21H34.56V21.56C35.4691 21.2545 36.3937 20.9975 37.33 20.79C38.4987 20.5314 39.6931 20.4072 40.89 20.42C41.13 20.42 41.41 20.42 41.74 20.42C42.07 20.42 42.41 20.49 42.74 20.54L43.74 20.72C44.0275 20.7755 44.3089 20.8593 44.58 20.97L43.86 24.61Z" fill="#0D8E8B"/>
<path d="M58.26 23.52V20.02C55.736 20.0314 53.216 20.2252 50.72 20.6H50.45L50.1 20.66H50.04H49.75C48.91 20.86 48.15 21.06 47.49 21.27L46.98 21.45V36.21H51.35V24.38L51.54 24.33H51.79C53.3328 23.9958 54.8963 23.7653 56.47 23.64C57.1 23.64 57.69 23.57 58.27 23.57L58.26 23.52ZM70.94 24.02C70.744 23.2728 70.3661 22.5857 69.84 22.02C69.2591 21.4426 68.5498 21.0108 67.77 20.76L67.38 20.65C67.313 20.6209 67.2423 20.6007 67.17 20.59C66.6652 20.4657 66.1494 20.392 65.63 20.37C63.8506 20.1605 62.0615 20.0437 60.27 20.02V23.55C62.0264 23.5339 63.7785 23.7252 65.49 24.12L65.63 24.18C65.9208 24.2688 66.1876 24.4227 66.41 24.63C66.6359 24.8683 66.8117 25.1495 66.9268 25.457C67.0419 25.7645 67.094 26.092 67.08 26.42V26.83C66.729 26.7382 66.3712 26.6746 66.01 26.64C65.5086 26.5849 65.0044 26.5582 64.5 26.56C63.6836 26.5609 62.8695 26.6447 62.07 26.81C61.3359 26.9607 60.6326 27.2346 59.99 27.62C59.3878 27.9853 58.8887 28.4981 58.54 29.11C58.1602 29.8156 57.9739 30.6091 58 31.41C57.971 32.2258 58.1319 33.0371 58.47 33.78C58.7688 34.4134 59.2314 34.9554 59.81 35.35C60.4458 35.7687 61.1549 36.0639 61.9 36.22C62.7954 36.3994 63.7068 36.4865 64.62 36.48C65.9586 36.4913 67.296 36.3977 68.62 36.2C69.74 36.0067 70.61 35.8467 71.23 35.72V26.63C71.2518 25.7509 71.1543 24.8729 70.94 24.02ZM67.07 33.02C66.762 33.0679 66.4515 33.0979 66.14 33.11C65.74 33.11 65.33 33.11 64.9 33.11C64.2459 33.1445 63.5941 33.0066 63.01 32.71C62.7744 32.5609 62.585 32.349 62.4631 32.0981C62.3412 31.8473 62.2916 31.5675 62.32 31.29C62.3093 30.9792 62.393 30.6724 62.56 30.41C62.7217 30.174 62.9424 29.9844 63.2 29.86C63.5145 29.7093 63.8529 29.6145 64.2 29.58C64.5812 29.5299 64.9655 29.5066 65.35 29.51C65.64 29.51 65.97 29.51 66.35 29.56C66.6152 29.5862 66.8789 29.6263 67.14 29.68L67.07 33.02Z" fill="#0D8E8B"/>
<path d="M129.94 14L128.8 13.21C128.05 12.67 126.94 11.98 125.51 11.14C124.08 10.3 122.32 9.45 120.3 8.53C118.059 7.52896 115.77 6.64118 113.44 5.87C107.752 3.98449 101.919 2.56644 96 1.63C89.3777 0.636411 82.6958 0.0918354 76 0C69.2705 0.0282293 62.5511 0.522748 55.89 1.48C52.68 1.92 49.6 2.55 46.68 3.25C43.76 3.95 41.01 4.71 38.48 5.53C36.1472 6.26394 33.8542 7.11843 31.61 8.09C29.61 8.98 27.82 9.84 26.38 10.59C24.94 11.34 23.83 12.05 23.08 12.59L21.93 13.34C21.93 13.34 39.99 1.97 75.93 1.97C111.87 1.97 129.94 14 129.94 14Z" fill="#0D8E8B"/>
<path d="M133.69 15.6C133.701 15.9027 133.645 16.204 133.526 16.4824C133.406 16.7608 133.227 17.0093 133 17.21C132.57 17.5842 132.02 17.7904 131.45 17.7904C130.88 17.7904 130.33 17.5842 129.9 17.21C129.477 16.7847 129.24 16.2096 129.24 15.61C129.24 15.0105 129.477 14.4353 129.9 14.01C130.33 13.6358 130.88 13.4297 131.45 13.4297C132.02 13.4297 132.57 13.6358 133 14.01C133.224 14.2086 133.402 14.4538 133.521 14.7285C133.641 15.0032 133.698 15.3007 133.69 15.6Z" fill="#E84167"/>
<path d="M81.32 13.21C82.1008 13.2052 82.8796 13.2924 83.64 13.47C84.1943 13.5943 84.739 13.7581 85.27 13.96L84.39 17.55C83.9708 17.3628 83.5311 17.2253 83.08 17.14C82.6484 17.0556 82.2098 17.0121 81.77 17.01C81.3035 16.9958 80.8386 17.0705 80.4 17.23C80.0594 17.3599 79.7569 17.573 79.52 17.85C79.3015 18.1257 79.1477 18.447 79.07 18.79C78.979 19.1732 78.9353 19.5662 78.94 19.96V20.75H84.48V24.48H78.94V36.56H74.44V19.86C74.3932 18.972 74.5229 18.0835 74.8216 17.2459C75.1202 16.4083 75.5819 15.6381 76.18 14.98C76.8682 14.3463 77.6802 13.8619 78.5648 13.5573C79.4494 13.2527 80.3875 13.1345 81.32 13.21Z" fill="#333333"/>
<path d="M92.62 20.28C93.7444 20.2488 94.8663 20.4043 95.94 20.74C96.7414 20.9904 97.4693 21.4333 98.06 22.03C98.5914 22.5966 98.9789 23.2825 99.19 24.03C99.4189 24.908 99.5299 25.8127 99.52 26.72V36.11C98.88 36.25 97.99 36.42 96.84 36.61C95.4631 36.815 94.0719 36.9086 92.68 36.89C91.7431 36.8982 90.8079 36.8077 89.89 36.62C89.1212 36.4695 88.3902 36.1669 87.74 35.73C87.1398 35.3286 86.6595 34.7723 86.3499 34.12C86.0088 33.353 85.8447 32.5191 85.87 31.68C85.84 30.8604 86.0335 30.048 86.43 29.33C86.7862 28.6973 87.2993 28.1669 87.92 27.79C88.5801 27.3919 89.3041 27.1111 90.06 26.96C90.8819 26.7861 91.7198 26.6989 92.56 26.7C93.0777 26.6983 93.5951 26.725 94.11 26.78C94.4816 26.8158 94.8496 26.8827 95.21 26.98V26.55C95.2256 26.2141 95.1725 25.8785 95.0538 25.5638C94.9352 25.2491 94.7535 24.962 94.52 24.72C93.8392 24.1803 92.9739 23.929 92.11 24.02C91.3535 24.0208 90.5981 24.0776 89.8499 24.19C89.1912 24.2745 88.5438 24.4321 87.92 24.66L87.3499 21.04C87.6099 20.96 87.9299 20.87 88.3499 20.78C88.7699 20.69 89.16 20.61 89.63 20.54C90.1 20.47 90.58 20.41 91.09 20.36C91.6 20.31 92.1 20.28 92.62 20.28ZM93 33.43C93.44 33.43 93.87 33.43 94.27 33.43C94.6048 33.4191 94.9387 33.3891 95.27 33.34V29.9C95.09 29.86 94.82 29.82 94.46 29.78C93.7326 29.6933 92.9974 29.6933 92.27 29.78C91.9241 29.8266 91.5871 29.9243 91.27 30.07C91.0034 30.1982 90.7756 30.3949 90.61 30.64C90.4433 30.9136 90.3599 31.2298 90.37 31.55C90.3406 31.8353 90.3915 32.1232 90.5169 32.3812C90.6424 32.6391 90.8374 32.8569 91.08 33.01C91.6738 33.3112 92.3347 33.4558 93 33.43Z" fill="#333333"/>
<path d="M112.3 28.15C112.382 27.0965 112.192 26.0396 111.75 25.08C111.542 24.769 111.254 24.5201 110.916 24.3599C110.578 24.1996 110.202 24.134 109.83 24.17C109.55 24.17 109.26 24.17 108.96 24.17L108.08 24.27V36.56H103.59V21.21C103.97 21.11 104.42 21 104.93 20.89C105.44 20.78 105.99 20.68 106.56 20.59C107.13 20.5 107.72 20.43 108.33 20.38C108.94 20.33 109.52 20.3 110.1 20.3C111.049 20.2682 111.996 20.4175 112.89 20.74C113.53 20.9763 114.127 21.3139 114.66 21.74C115.334 21.264 116.08 20.8994 116.87 20.66C117.616 20.4118 118.394 20.277 119.18 20.26C120.245 20.2271 121.306 20.4073 122.3 20.79C123.067 21.1071 123.736 21.6211 124.24 22.28C124.739 22.9633 125.081 23.7488 125.24 24.58C125.429 25.5518 125.519 26.5401 125.51 27.53V36.53H121V28.15C121.079 27.0956 120.887 26.0384 120.44 25.08C120.233 24.7682 119.945 24.5187 119.606 24.3584C119.268 24.198 118.893 24.1329 118.52 24.17C118.181 24.1886 117.845 24.2491 117.52 24.35C117.142 24.4473 116.781 24.6025 116.45 24.81C116.596 25.2851 116.69 25.7746 116.73 26.27C116.73 26.78 116.79 27.33 116.79 27.91V36.56H112.29L112.3 28.15Z" fill="#333333"/>
<path d="M134.07 36.56H129.58V20.71H134.07V36.56Z" fill="#333333"/>
<path d="M144.62 36.86C143.545 36.8729 142.474 36.7315 141.44 36.44C140.718 36.2339 140.055 35.8566 139.51 35.34C139.023 34.8713 138.676 34.2755 138.51 33.62C138.325 32.8779 138.238 32.1148 138.25 31.35V13.89L142.74 13.17V30.44C142.737 30.8053 142.767 31.1702 142.83 31.53C142.88 31.8241 143 32.1018 143.18 32.34C143.375 32.5815 143.63 32.7677 143.92 32.88C144.33 33.0489 144.767 33.1437 145.21 33.16L144.62 36.86Z" fill="#333333"/>
<path d="M161.59 20.71C160.68 23.71 159.74 26.62 158.75 29.3C157.76 31.98 156.69 34.56 155.52 37.07C155.153 37.8696 154.728 38.6416 154.25 39.38C153.866 39.9688 153.398 40.4978 152.86 40.95C152.356 41.3619 151.775 41.668 151.15 41.85C150.431 42.0535 149.687 42.1512 148.94 42.14C148.268 42.1477 147.597 42.0807 146.94 41.94C146.438 41.8394 145.947 41.6956 145.47 41.51L146.26 37.92C146.66 38.0641 147.072 38.1745 147.49 38.25C147.87 38.3109 148.255 38.341 148.64 38.34C148.976 38.3614 149.313 38.3148 149.631 38.2031C149.949 38.0915 150.241 37.917 150.49 37.69C150.978 37.175 151.355 36.5659 151.6 35.9C150.573 33.9 149.547 31.6433 148.52 29.13C147.406 26.3762 146.438 23.5657 145.62 20.71H150.39C150.59 21.49 150.83 22.34 151.1 23.25C151.37 24.16 151.66 25.09 151.96 26.03C152.26 26.97 152.57 27.87 152.89 28.75C153.21 29.63 153.5 30.44 153.78 31.17C154.04 30.44 154.31 29.64 154.6 28.75C154.89 27.86 155.16 26.96 155.43 26.03C155.7 25.1 156 24.21 156.26 23.21C156.52 22.21 156.74 21.45 156.95 20.67L161.59 20.71Z" fill="#333333"/>
</svg>
