<svg width="38" height="38" viewBox="0 0 38 38" fill="none" xmlns="http://www.w3.org/2000/svg">
<path d="M37 19C37 22.5605 35.944 26.0411 33.9657 29.0014C31.9873 31.9617 29.1755 34.2688 25.8858 35.6309C22.5961 36.9929 18.9764 37.3487 15.4844 36.6533C11.9925 35.9579 8.78518 34.2425 6.26827 31.7241C3.75135 29.2057 2.03788 25.9974 1.34456 22.5051C0.65124 19.0127 1.00925 15.3931 2.37327 12.1043C3.7373 8.81538 6.04607 6.00493 9.00757 4.02836C11.9691 2.05179 15.4502 0.997878 19.0108 1C21.374 1 23.7142 1.46566 25.8974 2.37037C28.0807 3.27509 30.0643 4.60112 31.7349 6.27272C33.4055 7.94431 34.7303 9.92872 35.6338 12.1125C36.5372 14.2963 37.0014 16.6367 37 19Z" fill="#078E8C" stroke="white" stroke-miterlimit="10"/>
<path d="M27.0858 24.1046L25.6444 22.6787L24.6027 21.6395C24.5265 21.5544 24.4332 21.4862 24.3288 21.4396C24.2245 21.3929 24.1114 21.3688 23.997 21.3688C23.8827 21.3688 23.7695 21.3929 23.6652 21.4396C23.5608 21.4862 23.4675 21.5544 23.3914 21.6395L23.1734 21.8328L21.7198 23.295C21.574 23.4657 21.3719 23.579 21.1499 23.6144C20.9279 23.6499 20.7005 23.6051 20.5085 23.4883C20.2057 23.3312 19.9029 23.1862 19.6243 23.017C18.3556 22.2479 17.2085 21.295 16.2206 20.1894C15.3001 19.2558 14.539 18.1782 13.9676 16.9993C13.8901 16.887 13.8358 16.7604 13.8079 16.627C13.7799 16.4935 13.7789 16.3559 13.8048 16.2221C13.8308 16.0882 13.8831 15.9608 13.9589 15.8474C14.0347 15.734 14.1324 15.6367 14.2462 15.5613C14.7549 15.0659 15.2758 14.5704 15.7603 14.0508C15.8474 13.976 15.9173 13.8833 15.9652 13.779C16.0131 13.6747 16.0379 13.5614 16.0379 13.4467C16.0379 13.3319 16.0131 13.2186 15.9652 13.1143C15.9173 13.01 15.8474 12.9173 15.7603 12.8425L15.5786 12.6492L13.156 10.2324C13.0706 10.1151 12.9586 10.0196 12.8292 9.95375C12.6997 9.88791 12.5564 9.85352 12.4111 9.85352C12.2658 9.85352 12.1225 9.88791 11.993 9.95375C11.8635 10.0196 11.7515 10.1151 11.6662 10.2324C11.1695 10.7278 10.6729 11.1991 10.2005 11.7066C9.97236 11.9514 9.78798 12.2334 9.65539 12.5404C9.46155 13.195 9.46155 13.8917 9.65539 14.5463C9.88742 15.5671 10.2497 16.5539 10.7334 17.4827C13.0532 22.0192 16.9567 25.5522 21.7077 27.4155C22.3956 27.67 23.1188 27.8167 23.8517 27.8505C24.1944 27.8675 24.5369 27.8117 24.8564 27.6867C25.1759 27.5617 25.4651 27.3704 25.7049 27.1255C26.141 26.6543 26.6012 26.2071 27.0494 25.748C27.1342 25.6513 27.219 25.5667 27.2917 25.4701C27.4321 25.3165 27.51 25.116 27.51 24.9081C27.51 24.7002 27.4321 24.4999 27.2917 24.3463L27.0858 24.1046Z" fill="white"/>
</svg>
