<svg width="40" height="41" viewBox="0 0 40 41" fill="none" xmlns="http://www.w3.org/2000/svg">
<path d="M19.98 40.04C31.0146 40.04 39.96 31.0947 39.96 20.06C39.96 9.02537 31.0146 0.0800171 19.98 0.0800171C8.94533 0.0800171 0 9.02537 0 20.06C0 31.0947 8.94533 40.04 19.98 40.04Z" fill="#0D8E8B"/>
<path d="M25.7999 10.67H14.16C13.4059 10.6727 12.6836 10.9741 12.1512 11.5083C11.6189 12.0425 11.3199 12.7659 11.3199 13.52V25.16C11.3226 25.9124 11.6226 26.6333 12.1547 27.1653C12.6867 27.6973 13.4076 27.9974 14.16 28H19.98L25.51 32.51V28H25.7999C26.5558 28 27.2807 27.6997 27.8152 27.1653C28.3497 26.6308 28.65 25.9059 28.65 25.15V13.52C28.65 12.7641 28.3497 12.0392 27.8152 11.5048C27.2807 10.9703 26.5558 10.67 25.7999 10.67ZM25.88 22.03H14.0699V20.43H25.88V22.03ZM25.88 18.33H14.0699V16.72H25.88V18.33Z" fill="white"/>
</svg>
